<svg xmlns="http://www.w3.org/2000/svg" xmlns:xlink="http://www.w3.org/1999/xlink" width="60" height="60" viewBox="0 0 60 60"><defs><style>.a{fill:#fff;}.b{fill:#fbbb00;}.c{fill:#518ef8;}.d{fill:#28b446;}.e{fill:#f14336;}.f{filter:url(#a);}</style><filter id="a" x="0" y="0" width="60" height="60" filterUnits="userSpaceOnUse"><feOffset dy="3" input="SourceAlpha"/><feGaussianBlur stdDeviation="2" result="b"/><feFlood flood-opacity="0.071"/><feComposite operator="in" in2="b"/><feComposite in="SourceGraphic"/></filter></defs><g transform="translate(-1091 -226)"><g class="f" transform="matrix(1, 0, 0, 1, 1091, 226)"><circle class="a" cx="24" cy="24" r="24" transform="translate(6 3)"/></g><g transform="translate(1105 237)"><path class="b" d="M7.092,148.964l-1.114,4.158-4.071.086a16.028,16.028,0,0,1-.118-14.941h0l3.624.665L7,142.535a9.549,9.549,0,0,0,.09,6.429Z" transform="translate(0 -129.626)"/><path class="c" d="M277,208.176a15.994,15.994,0,0,1-5.7,15.466h0l-4.565-.233-.646-4.033a9.536,9.536,0,0,0,4.1-4.869h-8.556v-6.33H277Z" transform="translate(-245.276 -195.165)"/><path class="d" d="M54.618,318.547h0a16.005,16.005,0,0,1-24.11-4.895l5.185-4.244a9.516,9.516,0,0,0,13.712,4.872Z" transform="translate(-28.602 -290.071)"/><path class="e" d="M53.048,3.683,47.864,7.927a9.515,9.515,0,0,0-14.027,4.982L28.625,8.642h0A16,16,0,0,1,53.048,3.683Z" transform="translate(-26.835)"/></g></g></svg>