<?xml version="1.0"?>
<svg xmlns="http://www.w3.org/2000/svg" xmlns:xlink="http://www.w3.org/1999/xlink" version="1.1" id="Capa_1" x="0px" y="0px" viewBox="0 0 512 512" style="enable-background:new 0 0 512 512;" xml:space="preserve" width="512px" height="512px" class=""><g><g>
	<path d="M0,76v360h512V76H0z M482,406H30V106h452V406z" data-original="#000000" class="active-path" data-old_color="#000000" fill="#FFFFFF"/>
	<path d="M254.962,282.903c0-25.676-15.172-47.86-37.015-58.099c2.131-6.047,3.303-12.542,3.303-19.309   c0-32.119-26.131-58.25-58.25-58.25s-58.25,26.131-58.25,58.25c0,6.762,1.171,13.254,3.299,19.297   c-21.843,10.241-37.011,32.435-37.011,58.111v81.853h183.924V282.903z M163,177.245c15.577,0,28.25,12.673,28.25,28.25   s-12.673,28.25-28.25,28.25s-28.25-12.673-28.25-28.25S147.423,177.245,163,177.245z M224.962,334.755H101.038v-51.853   c0-15.51,10.398-28.629,24.586-32.775c10.123,8.491,23.16,13.617,37.376,13.617s27.253-5.126,37.376-13.617   c14.188,4.146,24.586,17.265,24.586,32.775V334.755z" data-original="#000000" class="active-path" data-old_color="#000000" fill="#FFFFFF"/>
	<rect x="299" y="177.011" width="85" height="30" data-original="#000000" class="active-path" data-old_color="#000000" fill="#FFFFFF"/>
	<rect x="299" y="241" width="135" height="30" data-original="#000000" class="active-path" data-old_color="#000000" fill="#FFFFFF"/>
	<rect x="299" y="304.989" width="135" height="30" data-original="#000000" class="active-path" data-old_color="#000000" fill="#FFFFFF"/>
</g></g> </svg>
